REM DIRINDEX 1\3,1\4,1\5,1\6,1\2\7,1\2\8,1\2\9,1\10
REM DIRNAME folder01,folder02,folder03,folder04,folder05,folder06,folder07,folder08,folder09,folder10
TITLE ""
FILE "1-07 Level 1-062-072.mp3" MP3
  TRACK 01 AUDIO
    TITLE "0:"
    INDEX 01 00:00:00
  TRACK 02 AUDIO
    TITLE "7:cjc056_0200"
    INDEX 01 00:00:05
  TRACK 03 AUDIO
    TITLE "0:"
    INDEX 01 00:01:28
  TRACK 04 AUDIO
    TITLE "8:cjc056_0201"
    INDEX 01 00:01:36
  TRACK 05 AUDIO
    TITLE "0:"
    INDEX 01 00:02:42
  TRACK 06 AUDIO
    TITLE "9:cjc056_0202"
    INDEX 01 00:02:53
  TRACK 07 AUDIO
    TITLE "0:"
    INDEX 01 00:04:35
  TRACK 08 AUDIO
    TITLE "7:cjc056_0203"
    INDEX 01 00:05:10
  TRACK 09 AUDIO
    TITLE "0:"
    INDEX 01 00:06:30
  TRACK 10 AUDIO
    TITLE "8:cjc056_0204"
    INDEX 01 00:06:41
  TRACK 11 AUDIO
    TITLE "0:"
    INDEX 01 00:07:47
  TRACK 12 AUDIO
    TITLE "9:cjc056_0205"
    INDEX 01 00:07:58
  TRACK 13 AUDIO
    TITLE "0:"
    INDEX 01 00:09:67
  TRACK 14 AUDIO
    TITLE "8:cjc056_0206"
    INDEX 01 00:10:18
  TRACK 15 AUDIO
    TITLE "0:"
    INDEX 01 00:11:29
  TRACK 16 AUDIO
    TITLE "9:cjc056_0207"
    INDEX 01 00:11:42
  TRACK 17 AUDIO
    TITLE "0:"
    INDEX 01 00:14:17
  TRACK 18 AUDIO
    TITLE "7:cjc056_0208"
    INDEX 01 00:14:68
  TRACK 19 AUDIO
    TITLE "0:"
    INDEX 01 00:16:12
  TRACK 20 AUDIO
    TITLE "8:cjc056_0209"
    INDEX 01 00:16:26
  TRACK 21 AUDIO
    TITLE "0:"
    INDEX 01 00:17:27
  TRACK 22 AUDIO
    TITLE "9:cjc056_0210"
    INDEX 01 00:17:41
  TRACK 23 AUDIO
    TITLE "0:"
    INDEX 01 00:19:24
  TRACK 24 AUDIO
    TITLE "7:cjc056_0211"
    INDEX 01 00:19:73
  TRACK 25 AUDIO
    TITLE "0:"
    INDEX 01 00:21:17
  TRACK 26 AUDIO
    TITLE "8:cjc056_0212"
    INDEX 01 00:21:31
  TRACK 27 AUDIO
    TITLE "0:"
    INDEX 01 00:23:69
  TRACK 28 AUDIO
    TITLE "9:cjc056_0213"
    INDEX 01 00:24:08
  TRACK 29 AUDIO
    TITLE "0:"
    INDEX 01 00:25:68
  TRACK 30 AUDIO
    TITLE "7:cjc056_0214"
    INDEX 01 00:26:44
  TRACK 31 AUDIO
    TITLE "0:"
    INDEX 01 00:27:45
  TRACK 32 AUDIO
    TITLE "8:cjc056_0215"
    INDEX 01 00:27:59
  TRACK 33 AUDIO
    TITLE "0:"
    INDEX 01 00:29:33
  TRACK 34 AUDIO
    TITLE "9:cjc056_0216"
    INDEX 01 00:29:44
  TRACK 35 AUDIO
    TITLE "0:"
    INDEX 01 00:31:35
  TRACK 36 AUDIO
    TITLE "7:cjc056_0217"
    INDEX 01 00:32:11
  TRACK 37 AUDIO
    TITLE "0:"
    INDEX 01 00:33:26
  TRACK 38 AUDIO
    TITLE "8:cjc056_0218"
    INDEX 01 00:33:42
  TRACK 39 AUDIO
    TITLE "0:"
    INDEX 01 00:34:71
  TRACK 40 AUDIO
    TITLE "9:cjc056_0219"
    INDEX 01 00:35:10
  TRACK 41 AUDIO
    TITLE "0:"
    INDEX 01 00:37:01
  TRACK 42 AUDIO
    TITLE "7:cjc056_0220"
    INDEX 01 00:37:52
  TRACK 43 AUDIO
    TITLE "0:"
    INDEX 01 00:38:43
  TRACK 44 AUDIO
    TITLE "8:cjc056_0221"
    INDEX 01 00:38:55
  TRACK 45 AUDIO
    TITLE "0:"
    INDEX 01 00:40:05
  TRACK 46 AUDIO
    TITLE "9:cjc056_0222"
    INDEX 01 00:40:19
  TRACK 47 AUDIO
    TITLE "0:"
    INDEX 01 00:41:53
  TRACK 48 AUDIO
    TITLE "7:cjc056_0223"
    INDEX 01 00:42:29
  TRACK 49 AUDIO
    TITLE "0:"
    INDEX 01 00:43:29
  TRACK 50 AUDIO
    TITLE "8:cjc056_0224"
    INDEX 01 00:43:44
  TRACK 51 AUDIO
    TITLE "0:"
    INDEX 01 00:45:32
  TRACK 52 AUDIO
    TITLE "9:cjc056_0225"
    INDEX 01 00:45:39
  TRACK 53 AUDIO
    TITLE "0:"
    INDEX 01 00:47:03
  TRACK 54 AUDIO
    TITLE "7:cjc056_0226"
    INDEX 01 00:47:54
  TRACK 55 AUDIO
    TITLE "0:"
    INDEX 01 00:48:59
  TRACK 56 AUDIO
    TITLE "8:cjc056_0227"
    INDEX 01 00:48:73
  TRACK 57 AUDIO
    TITLE "0:"
    INDEX 01 00:50:33
  TRACK 58 AUDIO
    TITLE "9:cjc056_0228"
    INDEX 01 00:50:46
  TRACK 59 AUDIO
    TITLE "0:"
    INDEX 01 00:52:00
  TRACK 60 AUDIO
    TITLE "7:cjc056_0229"
    INDEX 01 00:52:53
  TRACK 61 AUDIO
    TITLE "0:"
    INDEX 01 00:53:60
  TRACK 62 AUDIO
    TITLE "8:cjc056_0230"
    INDEX 01 00:53:74
  TRACK 63 AUDIO
    TITLE "0:"
    INDEX 01 00:55:20
  TRACK 64 AUDIO
    TITLE "9:cjc056_0231"
    INDEX 01 00:55:28
  TRACK 65 AUDIO
    TITLE "0:"
    INDEX 01 00:57:07
  TRACK 66 AUDIO
    TITLE "7:cjc056_0232"
    INDEX 01 00:57:58
  TRACK 67 AUDIO
    TITLE "0:"
    INDEX 01 00:59:02
  TRACK 68 AUDIO
    TITLE "8:cjc056_0233"
    INDEX 01 00:59:16
  TRACK 69 AUDIO
    TITLE "0:"
    INDEX 01 01:00:55
  TRACK 70 AUDIO
    TITLE "9:cjc056_0234"
    INDEX 01 01:00:68
  TRACK 71 AUDIO
    TITLE "0:"
    INDEX 01 01:02:42
